<svg version="1.1" id="Layer_1" xmlns="http://www.w3.org/2000/svg" xmlns:xlink="http://www.w3.org/1999/xlink" x="0px" y="0px"
	 width="100%" viewBox="0 0 736 736" enable-background="new 0 0 736 736" xml:space="preserve">
<path fill="#000000" opacity="1.000000" stroke="none" 
	d="
M345.350464,396.312439 
	C329.396088,399.380280 321.230164,409.242859 318.355530,424.395569 
	C316.273651,435.369446 314.789581,446.383362 314.244354,457.535889 
	C314.153778,459.388641 314.807404,461.594940 312.042786,463.237366 
	C311.240997,455.191162 310.465820,447.502411 309.711029,439.811615 
	C308.994385,432.509094 307.617035,425.337341 305.612610,418.277832 
	C302.460876,407.177582 295.016144,400.510437 284.158478,397.292084 
	C277.268921,395.249939 270.156586,394.404968 263.096405,393.271362 
	C260.671204,392.881989 258.251099,392.461121 255.545319,392.007080 
	C256.453705,389.456268 258.338501,389.967163 259.794800,389.808655 
	C267.748688,388.942810 275.604675,387.603851 283.338989,385.510498 
	C296.164825,382.039062 303.751984,373.745636 306.861969,360.907288 
	C309.857880,348.540009 310.296021,335.883118 311.651459,323.326904 
	C311.807709,321.879852 311.283539,320.310486 312.539612,318.856354 
	C314.921265,319.955719 314.133026,322.182648 314.271240,323.946808 
	C315.232452,336.214050 316.249207,348.477966 319.275513,360.451416 
	C324.195435,379.916748 331.454132,384.600739 351.336212,381.351593 
	C364.145447,379.258270 376.907501,377.251678 390.013306,377.516479 
	C417.221741,378.066162 440.052368,388.479797 459.691956,406.815491 
	C472.611267,418.877106 482.047241,433.611664 491.956329,448.034821 
	C506.362122,469.003143 523.821411,486.500977 548.323425,495.621429 
	C550.136841,496.296417 552.332458,496.163422 553.742737,497.834198 
	C553.828979,497.936401 553.795715,498.139465 553.892395,498.816101 
	C492.814667,498.816101 431.811432,498.816101 370.581970,498.816101 
	C371.285919,496.197388 373.294830,496.379730 374.689728,495.812927 
	C398.250031,486.238586 412.480408,469.163269 414.340729,443.595703 
	C415.656250,425.515503 406.960693,411.779602 391.259979,402.911194 
	C377.050659,394.885193 361.678711,393.362762 345.350464,396.312439 
z"/>
<path fill="#000000" opacity="1.000000" stroke="none" 
	d="
M440.397278,370.141052 
	C427.101868,360.868347 412.203339,356.759033 396.829865,354.330902 
	C372.855286,350.544281 354.704742,338.834198 343.338959,317.029572 
	C336.846741,304.574707 333.179840,291.299713 331.873993,277.466034 
	C329.883484,256.378967 333.134979,236.001648 341.818146,216.583145 
	C343.582275,212.638000 345.586060,208.839218 348.197998,205.365952 
	C351.002228,205.866364 351.415955,208.310303 352.403473,210.050705 
	C377.465851,254.220718 402.471649,298.422821 427.479523,342.623779 
	C432.070282,350.737823 436.667755,358.848846 441.143280,367.026306 
	C441.640869,367.935425 444.223328,369.728760 440.397278,370.141052 
z"/>
<path fill="#000000" opacity="1.000000" stroke="none" 
	d="
M294.999817,499.353210 
	C259.408112,499.353424 224.316437,499.353424 189.224731,499.353424 
	C188.884933,498.793365 188.545135,498.233307 188.205322,497.673248 
	C221.410004,488.753448 241.996765,467.082428 252.988739,434.834045 
	C263.489410,467.935608 284.658661,489.175507 318.325012,497.430969 
	C318.154663,498.071655 317.984314,498.712311 317.813995,499.352997 
	C310.375916,499.352997 302.937866,499.352997 294.999817,499.353210 
z"/>
</svg>